# xmcd CD database file
#
# Track frame offsets:
#	150
#	16453
#	31293
#	44861
#	65965
#	82640
#	100102
#	118980
#	134230
#	165670
#	185583
#	201001
#	219566
#	244334
#	267452
#
# Disc length: 3782 seconds
#
# Revision: 0
# Processed by: cddbd v1.5.1PL0 Copyright (c) Steve Scherf et al.
# Submitted via: CDex 1.51
#
DISCID=e90ec40f
DTITLE=Eric Clapton - Walkin' Blues
DYEAR=2001
DGENRE=Blues
TTITLE0=Walkin' Blues
TTITLE1=Everybody Oughta Make A Change
TTITLE2=Blow Wind Blow
TTITLE3=Before You Accuse Me (Take A look At Yourself)
TTITLE4=Alberta
TTITLE5=Mean Old World
TTITLE6=Rollin' and Tumblin'
TTITLE7=San Francisco Bay Blues
TTITLE8=Meet Me (Down At The Bottom)
TTITLE9=We've Been Told (Jesus Coming Soon)
TTITLE10=Singin' The Blues
TTITLE11=Little Rachel
TTITLE12=Ain't That Loving You
TTITLE13=Bad Influence
TTITLE14=Malted Milk
EXTD=YEAR: 2001
EXTT0=
EXTT1=
EXTT2=
EXTT3=
EXTT4=
EXTT5=
EXTT6=
EXTT7=
EXTT8=
EXTT9=
EXTT10=
EXTT11=
EXTT12=
EXTT13=
EXTT14=
PLAYORDER=
